<?xml version="1.0" encoding="UTF-8" standalone="no"?>

<svg xmlns="http://www.w3.org/2000/svg" 
version="1.1" xmlns:xlink="http://www.w3.org/1999/xlink" 
xmlns:svgjs="http://svgjs.dev/svgjs" width="1000" height="625" viewBox="0 0 1000 625">
<g transform="matrix(1,0,0,1,0,0)"><svg viewBox="0 0 512 320" data-background-color="#046380" 
preserveAspectRatio="xMidYMid meet" height="625" width="1000" xmlns="http://www.w3.org/2000/svg" 
xmlns:xlink="http://www.w3.org/1999/xlink"><g id="tight-bounds" transform="matrix(1,0,0,1,0,0)">
<svg viewBox="0 0 512 320" height="320" width="512"><g><svg></svg></g><g><svg viewBox="0 0 512 320" height="320" 
width="512"><g><path xmlns="http://www.w3.org/2000/svg" 
d="M96 160c0-88.366 71.634-160 160-160 88.366 0 160 71.634 160 160 0 88.366-71.634 160-160 160-88.366 
0-160-71.634-160-160z" fill="#000000" fill-rule="nonzero" stroke="none" stroke-width="1" stroke-linecap="butt" 
stroke-linejoin="miter" stroke-miterlimit="10" stroke-dasharray="" stroke-dashoffset="0" font-family="none" 
font-weight="none" font-size="none" text-anchor="none" style="mix-blend-mode: normal" 
data-fill-palette-color="tertiary"></path></g><g transform="matrix(1,0,0,1,153.6,103.97739403453689)">
<svg viewBox="0 0 204.8 112.04521193092623" height="112.04521193092623" width="204.8"><g>
<svg viewBox="0 0 204.8 112.04521193092623" height="112.04521193092623" width="204.8"><g>
<svg viewBox="0 0 204.8 112.04521193092623" height="112.04521193092623" width="204.8"><g>
<svg viewBox="0 0 204.8 112.04521193092623" height="112.04521193092623" width="204.8"><g>
<svg viewBox="0 0 204.8 112.04521193092623" height="112.04521193092623" width="204.8"><g>
<svg viewBox="0 0 204.8 112.04521193092623" height="112.04521193092623" width="204.8">
<g transform="matrix(1,0,0,1,0,0)"><svg width="204.8" viewBox="1.4500000476837158 -33.75 63.70000076293945 
34.849998474121094" height="112.04521193092623" data-palette-color="#046380">
<path d="M2.5-27.5Q2.5-28.2 2.93-28.63 3.35-29.05 4.1-29.4L4.1-29.4Q4.35-29.55 5.93-30.3 7.5-31.05 
8.95-31.45L8.95-31.45Q9.4-32.45 10.33-33.1 11.25-33.75 12.7-33.75L12.7-33.75Q13.55-33.75 14.1-33.43 14.65-33.1 
14.85-32.6L14.85-32.6Q16.7-33.2 19.3-33.2L19.3-33.2Q22.55-33.2 24.93-31.83 27.3-30.45 28.53-28.05 29.75-25.65 
29.75-22.65L29.75-22.65Q29.75-22.05 29.6-21L29.6-21Q27.55-9.3 12.1-9.3L12.1-9.3Q10.7-9.3 10.05-9.35L10.05-9.35 
9.4-6.95Q8.35-3.1 8.35-3L8.35-3Q7.95-1.25 7.13-0.3 6.3 0.65 4.45 0.65L4.45 0.65Q2.9 0.65 2.18 0.13 1.45-0.4 
1.45-1.65L1.45-1.65Q1.45-2.2 1.6-2.7L1.6-2.7 7.65-26.05Q5.05-25.3 3.7-24L3.7-24Q3.15-24.6 2.83-25.58 2.5-26.55 
2.5-27.5L2.5-27.5ZM11.1-14Q11.7-13.95 12.8-13.95L12.8-13.95Q17.55-13.95 20.33-15.75 23.1-17.55 
23.9-21.3L23.9-21.3Q24.05-22.15 24.05-22.55L24.05-22.55Q24.05-25.35 22.5-26.73 20.95-28.1 
18.15-28.1L18.15-28.1Q16.65-28.1 14.3-27.4L14.3-27.4Q12.35-19.65 11.1-14L11.1-14ZM54.6-14.6Q44.75-13.4 
40.65-12.5L40.65-12.5 37.95-1.8Q37.6-0.35 36.92 0.15 36.25 0.65 34.25 0.65L34.25 0.65Q32.7 0.65 31.97 0.13 
31.25-0.4 31.25-1.65L31.25-1.65Q31.25-2.2 31.4-2.7L31.4-2.7 38.25-29.75Q38.8-31.95 39.42-32.68 40.05-33.4 
41.7-33.4L41.7-33.4Q43.05-33.4 44.17-33.1 45.3-32.8 45.35-32.2L45.35-32.2Q45.35-32.1 44.7-29.5L44.7-29.5Q43.7-25.65 
41.85-17.8L41.85-17.8Q49.25-19.3 55.9-19.85L55.9-19.85 58.2-29.15Q58.7-31.15 59.57-32.13 60.45-33.1 
61.95-33.4L61.95-33.4Q63.8-33.05 64.37-32.83 64.95-32.6 65.15-32.15L65.15-32.15Q64.5-30.3 64.17-28.73 
63.85-27.15 63.8-26.85L63.8-26.85Q63.15-23.35 62.25-19.7L62.25-19.7Q64.2-18.85 64.2-17.4L64.2-17.4Q64.2-15.95 
61.1-14.95L61.1-14.95Q60.55-12.95 59.05-6.25L59.05-6.25Q58.7-4.4 58.05-1.65L58.05-1.65Q57.35 1.1 55.85 1.1L55.85 
1.1Q51.25 1.1 51.25-1.05L51.25-1.05Q51.25-1.5 54.6-14.6L54.6-14.6Z" opacity="1" transform="matrix(1,0,0,1,0,0)" 
fill="#ffffff" class="undefined-text-0" data-fill-palette-color="quaternary" id="text-0">
</path></svg></g></svg></g></svg></g></svg></g></svg></g></svg></g></svg></g></svg></g><defs></defs></svg>
<rect width="512" height="320" fill="none" stroke="none" visibility="hidden"></rect></g></svg></g></svg>